<?xml version="1.0" encoding="UTF-8"?>
<!DOCTYPE svg PUBLIC "-//W3C//DTD SVG 1.1//EN" "http://www.w3.org/Graphics/SVG/1.1/DTD/svg11.dtd">
<svg version="1.1" xmlns="http://www.w3.org/2000/svg" xmlns:xlink="http://www.w3.org/1999/xlink" x="0" y="0" width="437" height="392" viewBox="0, 0, 437, 392">
  <g id="Layer_1">
    <path d="M44.79,195.744 L10.905,20.996 C39.853,36.998 70.241,45.424 99.177,45.424 C126.55,45.424 152.527,38.083 176.389,23.606 C192.812,13.64 211.725,8.586 232.598,8.586 C277.95,8.586 318.697,32.35 331.151,49.776 L370.255,223.676 C352.314,210.362 312.734,185.29 269.252,185.29 C249.301,185.29 230.808,190.618 214.285,201.127 C184.323,220.184 152.719,230.256 122.886,230.255 C90.308,230.253 62.604,218.003 44.79,195.744" fill="#FFFFFE"/>
    <path d="M10.905,20.997 C39.852,36.998 70.241,45.425 99.176,45.425 C126.55,45.425 152.527,38.084 176.388,23.605 C192.812,13.64 211.724,8.586 232.597,8.586 C277.95,8.586 318.697,32.351 331.151,49.775 L370.255,223.676 C352.314,210.362 312.734,185.29 269.252,185.29 C249.301,185.29 230.807,190.619 214.285,201.127 C184.323,220.184 152.718,230.256 122.885,230.255 C90.307,230.253 62.604,218.003 44.79,195.744 L10.905,20.997 z M365.401,255.121 C368.458,257.758 374.537,262.922 376.124,263.673 C378.153,264.634 378.305,266.102 378.445,270.204 C378.536,272.859 378.654,276.255 379.631,280.587 C379.501,280.317 379.411,280.144 379.388,280.099 L379.259,279.853 L378.984,279.83 C376.414,279.625 366.575,282.148 366.173,282.251 L365.716,282.369 L365.808,282.832 C365.917,283.388 368.581,296.443 376.249,296.443 C376.351,296.443 376.452,296.44 376.555,296.436 C378.926,296.328 380.593,295.463 381.515,293.867 C381.726,293.501 381.875,293.099 381.999,292.683 C381.849,294.65 381.257,296.228 380.228,297.169 C378.398,298.841 375.072,298.712 370.611,296.793 C365.578,294.63 361.054,287.465 360.988,284.282 C360.962,283.002 360.518,281.203 359.848,279.403 L359.863,279.396 C359.863,279.396 359.848,279.373 359.824,279.34 C359.222,277.732 358.439,276.137 357.604,274.91 C357.38,274.329 357.161,273.733 356.963,273.12 C356.4,271.403 356.026,269.623 355.913,268.261 C355.849,267.579 355.852,267.004 355.882,266.603 C355.915,266.198 355.934,265.967 355.934,265.967 C355.934,265.967 355.854,266.186 355.713,266.569 C355.574,266.954 355.413,267.527 355.289,268.228 C355.059,269.443 354.946,271.056 354.978,272.712 C354.896,272.699 354.776,272.681 354.812,272.663 C354.806,272.656 354.797,272.654 354.777,272.658 C354.741,272.646 354.662,272.586 354.599,272.548 C354.461,272.475 354.3,272.332 354.123,272.189 C353.411,271.585 352.54,270.527 351.774,269.409 C351.003,268.288 350.355,267.072 349.968,266.118 C349.842,265.82 349.755,265.562 349.684,265.327 C350.985,261.24 353.029,258.25 353.979,257.012 C355.2,255.419 361.25,254.904 365.401,255.121 M349.572,265.668 C349.599,265.84 349.626,266.013 349.67,266.209 C349.884,267.243 350.316,268.597 350.899,269.894 C351.484,271.192 352.171,272.45 352.899,273.35 C353.089,273.574 353.253,273.782 353.457,273.959 C353.56,274.051 353.626,274.127 353.742,274.215 C353.881,274.31 354.018,274.391 354.144,274.458 C354.266,274.524 354.341,274.557 354.399,274.579 C354.65,275.054 354.931,275.623 355.22,276.264 C355.325,277.149 355.457,277.976 355.604,278.696 C353.236,276.693 350.464,274.95 348.661,274.963 C348.293,271.521 348.755,268.364 349.572,265.668 M348.162,309.007 C348.234,309.095 348.297,309.18 348.372,309.268 C348.91,309.835 349.492,310.442 350.189,310.963 C350.521,311.248 350.876,311.513 351.259,311.746 C351.639,311.984 352.008,312.264 352.415,312.474 C352.819,312.689 353.23,312.907 353.646,313.128 C354.067,313.333 354.505,313.507 354.937,313.698 C355.248,313.834 355.568,313.949 355.888,314.066 C355.714,314.315 355.509,314.603 355.236,314.969 C354.375,316.141 353.085,317.813 351.493,319.794 C348.312,323.759 343.92,328.958 339.37,334.015 C334.819,339.068 330.097,343.977 326.288,347.367 C325.333,348.209 324.443,348.968 323.626,349.601 C322.811,350.237 322.077,350.767 321.443,351.15 C320.819,351.554 320.288,351.804 319.923,351.957 C319.547,352.093 319.347,352.164 319.347,352.164 C319.347,352.164 319.552,352.107 319.938,351.999 C320.315,351.873 320.871,351.659 321.528,351.3 C322.197,350.959 322.974,350.481 323.842,349.9 C324.713,349.322 325.662,348.626 326.687,347.85 C330.766,344.721 335.867,340.144 340.807,335.406 C345.745,330.666 350.535,325.774 354.045,322.003 C355.38,320.57 356.527,319.303 357.439,318.265 C357.499,318.839 357.57,319.445 357.718,320.08 C357.856,320.913 358.122,321.773 358.384,322.682 C358.684,323.577 359.015,324.513 359.432,325.444 C359.646,325.906 359.865,326.376 360.087,326.852 C360.318,327.321 360.599,327.774 360.856,328.24 C360.891,328.308 360.933,328.371 360.968,328.437 C360.863,328.535 360.743,328.647 360.607,328.773 C359.926,329.378 358.953,330.244 357.785,331.284 C355.439,333.377 352.366,336.246 349.492,339.307 C348.059,340.841 346.673,342.418 345.434,343.944 C344.831,344.723 344.221,345.449 343.694,346.182 C343.171,346.914 342.659,347.595 342.218,348.244 C341.792,348.903 341.399,349.507 341.052,350.042 C340.7,350.573 340.452,351.073 340.217,351.466 C339.767,352.26 339.509,352.714 339.509,352.714 C339.509,352.714 339.793,352.276 340.292,351.511 C340.549,351.133 340.824,350.651 341.206,350.144 C341.583,349.633 342.009,349.057 342.472,348.428 C342.947,347.809 343.497,347.163 344.059,346.469 C344.622,345.776 345.272,345.09 345.913,344.357 C347.23,342.92 348.693,341.443 350.2,340.013 C353.224,337.158 356.425,334.509 358.873,332.574 C360.105,331.603 361.133,330.793 361.852,330.227 C361.91,330.181 361.971,330.13 362.03,330.08 C362.23,330.365 362.431,330.649 362.621,330.938 C363.336,331.755 363.95,332.639 364.751,333.348 C365.134,333.715 365.501,334.09 365.884,334.435 C366.296,334.751 366.701,335.065 367.1,335.371 C367.298,335.524 367.494,335.676 367.689,335.825 C367.901,335.951 368.112,336.075 368.32,336.198 C368.735,336.441 369.142,336.679 369.536,336.91 C370.349,337.326 371.171,337.611 371.893,337.927 C372.649,338.157 373.36,338.31 373.975,338.473 C374.281,338.564 374.573,338.617 374.852,338.631 C375.126,338.658 375.378,338.683 375.605,338.704 C376.509,338.795 377.024,338.846 377.024,338.846 C377.024,338.846 376.519,338.733 375.634,338.536 C375.414,338.487 375.171,338.433 374.906,338.374 C374.639,338.329 374.359,338.242 374.07,338.116 C373.489,337.883 372.824,337.655 372.129,337.348 C371.47,336.957 370.728,336.597 370.011,336.113 C369.666,335.851 369.313,335.58 368.951,335.306 C368.771,335.168 368.59,335.03 368.406,334.891 L367.907,334.398 C367.573,334.069 367.233,333.735 366.891,333.398 C366.573,333.034 366.276,332.644 365.966,332.265 C365.312,331.536 364.842,330.635 364.282,329.825 C363.84,328.929 363.313,328.091 362.974,327.17 C362.792,326.717 362.588,326.281 362.43,325.83 C362.283,325.379 362.138,324.932 361.994,324.492 C361.722,323.612 361.53,322.74 361.362,321.923 C361.231,321.097 361.087,320.323 361.061,319.609 C360.979,318.892 361.006,318.256 361.017,317.696 C361.009,317.399 361.043,317.181 361.075,316.992 C361.098,316.797 361.119,316.618 361.138,316.457 C361.134,316.321 361.22,316.082 361.258,315.924 C361.296,315.782 361.327,315.669 361.355,315.564 C361.901,315.663 362.443,315.755 362.97,315.849 C363.829,315.982 364.663,316.072 365.45,316.172 C366.239,316.239 366.985,316.302 367.675,316.36 C369.059,316.43 370.2,316.487 371.002,316.483 C371.802,316.494 372.261,316.501 372.261,316.501 C372.261,316.501 371.808,316.433 371.016,316.313 C370.221,316.205 369.096,315.994 367.758,315.74 C367.092,315.591 366.371,315.43 365.608,315.258 C364.854,315.055 364.058,314.856 363.246,314.614 C362.441,314.352 361.6,314.117 360.779,313.789 C359.944,313.5 359.126,313.145 358.316,312.783 C357.518,312.401 356.721,312.02 355.99,311.571 C355.627,311.346 355.256,311.138 354.911,310.907 C354.577,310.664 354.246,310.427 353.922,310.192 C353.593,309.964 353.324,309.685 353.033,309.444 C352.738,309.205 352.479,308.949 352.249,308.684 C351.742,308.189 351.371,307.655 351.022,307.178 C350.71,306.681 350.45,306.217 350.259,305.796 C350.107,305.357 349.923,305.003 349.854,304.682 C349.75,304.238 349.68,303.938 349.646,303.792 C349.092,300.55 349.363,296.94 349.651,293.118 C350.023,288.175 350.409,283.063 349.144,277.844 C349.068,277.532 349.022,277.229 348.961,276.921 C350.29,277.108 354.522,279.772 357.391,283.275 L357.484,283.198 C357.833,284.886 358.059,286.687 358.052,288.539 C358.028,296.447 369.191,299.761 368.964,300.741 C368.736,301.723 372.461,308.779 374.331,309.688 C376.2,310.595 376.295,316.653 379.785,320.045 C381.051,321.274 382.17,321.83 383.087,322.048 L388.247,342.799 C386.289,343.197 384.195,343.407 381.923,343.34 C381.881,343.339 381.837,343.338 381.794,343.338 C372.842,343.338 347.363,369.791 342.466,380.171 C331.014,379.804 316.204,367.842 310.636,357.172 C309.381,354.767 307.584,350.381 309.439,347.708 C310.859,346.492 320.443,338.255 329.756,329.366 C340.968,318.662 345.981,312.604 348.162,309.007 M406.669,317.43 C409.288,319.389 413.151,321.303 417.122,321.912 C414.426,322.284 412.078,324.707 409.267,327.877 L406.669,317.43 z M420.694,320.059 C415.467,320.523 409.569,317.503 406.766,314.95 C407.195,314.859 407.618,314.755 408.015,314.626 C408.481,314.501 408.909,314.308 409.315,314.136 C409.724,313.975 410.087,313.761 410.425,313.583 C411.766,312.828 412.478,312.057 412.478,312.057 C412.478,312.057 412.227,312.101 411.787,312.179 C411.356,312.264 410.74,312.364 410.028,312.511 C409.306,312.627 408.487,312.796 407.61,312.917 C407.176,313.003 406.722,313.024 406.27,313.089 C405.815,313.152 405.356,313.162 404.898,313.212 C404.443,313.22 403.984,313.25 403.539,313.244 C403.099,313.198 402.645,313.267 402.229,313.184 C401.813,313.116 401.386,313.128 401.009,313.026 C400.634,312.927 400.236,312.919 399.912,312.796 C399.581,312.69 399.261,312.609 398.971,312.536 C398.693,312.43 398.452,312.336 398.254,312.26 C397.842,312.109 397.586,312.03 397.586,312.03 C397.586,312.03 397.73,312.236 398.022,312.584 C398.172,312.753 398.348,312.976 398.58,313.194 C398.825,313.392 399.109,313.615 399.438,313.841 C399.751,314.1 400.152,314.25 400.565,314.451 C400.801,314.576 401.06,314.667 401.325,314.748 C400.927,315.053 400.4,315.343 399.749,315.608 C394.59,317.715 384.592,317.439 383.253,316.942 C382.449,316.169 379.302,310.467 379.641,307.819 C379.711,307.27 379.91,307.175 379.985,307.14 C382.105,306.136 386.28,301.504 390.621,296.412 C390.651,296.869 390.701,297.346 390.785,297.846 C390.877,298.264 390.949,298.696 391.096,299.12 C391.213,299.551 391.377,299.972 391.559,300.384 C391.712,300.807 391.963,301.187 392.163,301.574 C392.373,301.959 392.648,302.297 392.876,302.641 C393.119,302.975 393.404,303.259 393.646,303.546 C393.88,303.841 394.173,304.053 394.406,304.279 C394.652,304.494 394.856,304.711 395.081,304.855 C395.295,305.008 395.48,305.143 395.634,305.253 C395.939,305.473 396.113,305.598 396.113,305.598 C396.113,305.598 395.959,305.448 395.688,305.187 C395.555,305.057 395.392,304.899 395.205,304.717 C395.009,304.548 394.838,304.304 394.631,304.063 C394.438,303.81 394.189,303.57 394.007,303.254 C393.816,302.945 393.587,302.642 393.406,302.295 C393.24,301.94 393.032,301.595 392.891,301.212 C392.761,300.825 392.582,300.454 392.501,300.049 C392.392,299.654 392.3,299.259 392.254,298.859 C392.176,298.468 392.172,298.071 392.144,297.695 C392.13,296.939 392.17,296.235 392.274,295.646 C392.362,295.054 392.493,294.575 392.591,294.254 C392.625,294.145 392.652,294.065 392.676,293.996 C392.8,293.855 392.909,293.731 392.983,293.649 C393.123,293.526 394.796,292.428 408.05,293.77 C413.063,294.272 421.618,292.585 425.876,291.638 C426.21,292.648 427.019,293.337 427.73,293.934 C428.237,294.357 428.866,294.885 429.615,295.659 C430.845,296.93 431.246,298.604 430.809,300.634 C430.327,301.737 426.854,308.06 425.509,310.21 C425.075,310.903 424.714,311.89 424.257,313.137 C423.459,315.313 422.392,318.204 420.694,320.059 M354.892,274.347 C354.861,274.315 354.832,274.281 354.801,274.249 L354.925,273.714 L354.892,274.347 z M429.766,283.096 C428.699,284.549 426.591,287.53 426.002,289.163 C425.948,289.313 425.929,289.441 425.892,289.58 C421.918,290.477 413.113,292.268 408.251,291.779 C393.376,290.275 392.069,291.69 391.513,292.294 C391.268,292.56 390.748,293.172 390.048,293.998 C387.816,296.632 383.032,302.275 380.316,304.51 C379.146,303.951 378.174,303.649 377.392,303.407 C375.697,302.884 375.028,302.67 374.544,300.108 C375.324,300.251 376.077,300.348 376.77,300.348 C378.729,300.348 380.335,299.78 381.577,298.645 C384.892,295.614 384.378,289.363 382.792,284.524 C382.782,284.493 382.775,284.466 382.766,284.437 C383.953,284.19 385.629,282.924 387.778,280.654 C387.916,281.342 388.104,282.024 388.321,282.685 C388.955,284.595 389.886,286.339 390.722,287.538 C391.554,288.75 392.286,289.378 392.286,289.378 C392.286,289.378 391.744,288.579 391.276,287.252 C390.801,285.934 390.384,284.101 390.282,282.291 C390.227,281.39 390.25,280.496 390.359,279.714 C390.465,278.934 390.674,278.265 390.909,277.87 C391.023,277.668 391.144,277.547 391.231,277.476 C391.321,277.411 391.393,277.398 391.418,277.405 C391.404,277.442 391.379,277.467 391.354,277.481 C391.333,277.49 391.468,277.442 391.5,277.433 C391.606,277.398 391.663,277.379 391.663,277.379 L391.426,276.893 C393.987,276.195 402.171,276.327 408.821,276.434 C415.268,276.539 419.819,276.589 422.364,276.278 C423.207,277.072 424.566,277.551 426.176,278.11 C426.853,278.344 427.776,278.664 428.057,278.841 C428.596,279.181 429.358,281.126 429.766,283.096 M424.13,267.696 C423.954,268.186 423.464,269.176 423.125,269.86 C422.39,271.348 421.87,272.445 421.633,273.356 C419.003,273.598 413.481,273.508 408.87,273.434 C399.197,273.28 392.636,273.246 390.097,274.168 L389.909,273.783 C389.909,273.783 389.859,273.816 389.766,273.878 C389.708,273.917 389.636,273.965 389.551,274.021 C389.394,274.126 389.217,274.256 389.032,274.411 C388.741,274.686 388.454,275.03 388.222,275.445 C387.994,275.857 387.816,276.32 387.71,276.795 C387.632,277.155 387.59,277.523 387.565,277.892 C385.258,280.482 383.122,282.433 382.425,282.504 C382.429,282.505 382.482,282.498 382.568,282.531 L382.357,283.08 C380.715,277.493 380.551,273.272 380.444,270.137 C380.399,268.828 380.356,267.644 380.201,266.586 C380.827,265.86 381.894,264.336 383.754,261.192 C383.769,261.424 383.767,261.669 383.79,261.894 C383.901,263.052 384.084,264.129 384.294,265.114 C384.728,267.079 385.292,268.67 385.848,269.704 C386.11,270.225 386.381,270.61 386.572,270.849 C386.773,271.087 386.88,271.214 386.88,271.214 C386.88,271.214 386.785,271.077 386.608,270.821 C386.438,270.56 386.214,270.169 386.003,269.632 C385.556,268.57 385.151,266.963 384.909,265.01 C384.797,264.032 384.718,262.968 384.717,261.849 C384.711,261.289 384.737,260.718 384.788,260.146 C384.861,259.601 384.926,258.88 385.097,258.865 C385.4,258.657 385.998,258.493 386.575,258.402 C387.166,258.309 387.787,258.246 388.422,258.217 C389.689,258.146 391.002,258.154 392.314,258.178 C394.942,258.232 397.586,258.381 400.083,258.485 C401.332,258.538 402.546,258.583 403.714,258.598 C404.3,258.602 404.87,258.604 405.438,258.585 C406.013,258.571 406.577,258.525 407.054,258.495 C409.038,258.359 410.667,258.277 411.922,258.149 C412.187,258.118 412.431,258.083 412.687,258.037 C414.14,259.041 416.792,259.719 421.136,260.599 C421.756,260.724 422.278,260.827 422.634,260.911 C423.077,261.524 423.516,263.382 423.939,266.441 C424.019,267.012 424.073,267.4 424.13,267.696 M411.225,256.243 L411.224,256.243 C411.224,256.243 411.207,256.21 411.188,256.153 C411.201,256.183 411.211,256.214 411.225,256.243 M378.466,281.793 C378.472,281.478 378.456,281.201 378.394,280.972 C378.388,280.913 378.368,280.876 378.354,280.829 C378.446,280.825 378.547,280.818 378.629,280.818 C379.35,282.293 382.763,289.699 380.647,293.368 C379.909,294.649 378.517,295.346 376.509,295.438 C370.202,295.722 367.44,285.429 366.892,283.101 C367.045,283.063 367.242,283.013 367.458,282.96 C367.484,282.988 367.507,283.013 367.537,283.044 C367.69,283.201 367.876,283.393 368.09,283.611 C368.302,283.832 368.539,284.089 368.851,284.306 C369.148,284.538 369.475,284.792 369.829,285.049 C370.191,285.294 370.613,285.502 371.04,285.729 C371.461,285.966 371.971,286.084 372.46,286.25 C372.707,286.329 372.982,286.329 373.245,286.371 C373.513,286.398 373.777,286.454 374.052,286.409 C374.326,286.379 374.6,286.355 374.869,286.313 C375.13,286.225 375.391,286.138 375.648,286.051 C376.136,285.823 376.602,285.535 376.953,285.167 C377.146,284.998 377.32,284.821 377.449,284.613 C377.582,284.411 377.746,284.236 377.836,284.024 C377.938,283.819 378.041,283.624 378.128,283.431 C378.191,283.229 378.253,283.032 378.313,282.845 C378.413,282.467 378.465,282.109 378.466,281.793 M378.202,280.835 C378.204,280.892 378.208,280.945 378.204,281.011 C378.212,281.213 378.169,281.46 378.099,281.745 C378.032,282.024 377.909,282.334 377.773,282.654 C377.694,282.812 377.612,282.975 377.527,283.144 C377.424,283.3 377.316,283.461 377.207,283.627 C377.111,283.802 376.948,283.931 376.818,284.088 C376.688,284.248 376.537,284.389 376.367,284.513 C376.062,284.803 375.664,284.979 375.28,285.159 L374.661,285.353 L374.004,285.411 C373.787,285.458 373.561,285.41 373.337,285.393 C373.114,285.36 372.889,285.374 372.67,285.308 C372.241,285.154 371.785,285.118 371.384,284.918 C370.983,284.729 370.571,284.593 370.204,284.403 C369.847,284.195 369.5,284.008 369.177,283.835 C368.539,283.493 368.048,283.13 367.677,282.905 C370.165,282.293 375.71,280.984 378.202,280.835 M410.71,254.482 C409.681,254.666 408.276,254.879 406.669,255.142 C406.157,255.224 405.693,255.307 405.196,255.365 C404.696,255.43 404.159,255.479 403.607,255.527 C402.497,255.618 401.308,255.688 400.07,255.751 C397.596,255.881 394.934,255.982 392.259,256.178 C390.922,256.28 389.582,256.398 388.253,256.599 C387.59,256.694 386.926,256.821 386.267,256.992 C385.607,257.185 384.94,257.349 384.259,257.916 C384.165,258.003 384.055,258.148 383.974,258.273 C383.867,258.431 383.894,258.448 383.853,258.537 L383.833,258.592 L383.793,258.721 L383.789,258.753 L383.773,258.879 L383.743,259.13 C383.739,259.167 383.741,259.2 383.738,259.237 C382.386,261.573 380.878,264.008 379.936,265.325 C379.508,263.835 378.679,262.669 376.979,261.865 C375.991,261.398 372.042,258.157 368.471,255.118 C369.937,254.277 371.481,252.431 373.771,249.587 C374.697,248.438 375.724,247.163 376.725,246.046 C376.992,246.835 377.359,247.636 377.801,248.387 C378.555,249.685 379.482,250.839 380.225,251.649 C380.974,252.46 381.523,252.931 381.523,252.931 C381.523,252.931 381.057,252.364 380.473,251.457 C379.888,250.548 379.192,249.281 378.705,247.957 C378.261,246.789 378.019,245.594 378.021,244.69 C378.782,243.953 379.493,243.394 380.087,243.163 C381.926,242.449 384.9,243.039 388.342,243.725 C391.325,244.315 394.705,244.986 398.502,245.102 C400.557,245.163 405.946,246.835 410.085,248.36 C410.733,248.599 410.739,250.19 410.683,250.596 C410.614,251.078 410.417,252.77 410.71,254.482 M2.5,9.166 L39.177,198.318 L39.627,198.89 C58.585,222.983 88.153,236.253 122.885,236.255 C153.86,236.256 186.58,225.859 217.506,206.19 C233.05,196.303 250.46,191.29 269.252,191.29 C305.269,191.29 338.69,209.356 358.354,222.606 L365.445,251.117 C362.493,250.977 353.643,250.877 350.805,254.578 C345.372,261.663 343.299,270.713 345.257,278.787 C346.373,283.392 346.011,288.184 345.662,292.817 C345.354,296.904 345.063,300.765 345.709,304.504 L347.68,304.163 L345.722,304.569 C346.074,308.586 325.726,328.594 306.668,344.815 L306.377,345.121 C303.83,348.442 304.077,353.249 307.09,359.023 C313.4,371.115 329.915,384.178 343.032,384.179 C343.324,384.179 343.613,384.172 343.902,384.159 L345.284,384.097 L345.713,382.78 C348.352,374.681 374.843,347.337 381.732,347.337 C381.758,347.337 381.781,347.337 381.806,347.338 C384.471,347.413 386.932,347.171 389.215,346.691 L397.623,380.501 C398.306,383.243 399.881,385.527 401.961,387.123 C404.761,389.27 408.476,390.168 412.165,389.25 C418.597,387.65 422.514,381.14 420.914,374.709 L410.439,332.591 C410.786,332.2 411.125,331.816 411.452,331.445 C413.923,328.642 416.255,325.994 417.728,325.859 C424.065,325.28 426.536,318.541 428.013,314.514 C428.343,313.608 428.687,312.672 428.9,312.33 C429.505,311.366 434.468,302.764 434.702,301.558 C435.636,297.222 434.013,294.452 432.49,292.878 C431.596,291.953 430.847,291.325 430.299,290.867 C430.133,290.728 429.942,290.568 429.796,290.439 C430.245,289.322 432.2,286.498 433.483,284.799 L433.991,284.126 L433.864,283.293 C433.647,281.861 432.738,277.065 430.19,275.458 C429.522,275.036 428.579,274.709 427.488,274.33 C426.989,274.157 426.274,273.909 425.739,273.686 C426.009,273.054 426.423,272.215 426.71,271.635 C427.834,269.363 428.452,268.112 428.046,266.921 C428.02,266.791 427.972,266.396 427.901,265.894 C427.319,261.683 426.575,257.842 423.917,257.11 C423.489,256.993 422.835,256.86 421.931,256.678 C420.411,256.37 415.788,255.435 414.929,254.723 C414.592,254.366 414.442,252.589 414.644,251.151 C414.908,249.248 414.536,245.737 411.47,244.607 C409.31,243.811 402.003,241.205 398.623,241.104 C395.158,240.998 391.951,240.362 389.121,239.801 C388.49,239.676 387.878,239.557 387.273,239.444 L332.93,20.935 C331.331,14.505 324.821,10.586 318.389,12.186 C312.994,13.527 309.384,18.327 309.298,23.632 C288.858,11.635 261.004,2.586 232.597,2.586 C210.611,2.586 190.652,7.933 173.275,18.476 C150.367,32.376 125.436,39.425 99.176,39.425 C69.403,39.425 37.959,30.136 8.242,12.562 L2.5,9.166" fill="#0A0B09"/>
  </g>
</svg>
